<?xml version="1.0" standalone="no"?>
<!DOCTYPE svg PUBLIC "-//W3C//DTD SVG 20010904//EN"
 "http://www.w3.org/TR/2001/REC-SVG-20010904/DTD/svg10.dtd">
<svg version="1.0" xmlns="http://www.w3.org/2000/svg"
 width="600.000000pt" height="600.000000pt" viewBox="0 0 600.000000 600.000000"
 preserveAspectRatio="xMidYMid meet">
<metadata>
Created by potrace 1.14, written by Peter Selinger 2001-2017
</metadata>
<g transform="translate(0.000000,600.000000) scale(0.100000,-0.100000)"
fill="#000000" stroke="none">
<path d="M2920 5987 c0 -7 7 -23 16 -35 15 -21 15 -25 0 -41 -34 -37 -8 -101
42 -101 21 0 62 43 62 66 0 7 -7 19 -15 28 -11 11 -14 26 -9 55 l7 41 -52 0
c-35 0 -51 -4 -51 -13z"/>
<path d="M4795 5948 c-93 -24 -62 -161 36 -161 48 0 76 23 85 69 13 69 -44
113 -121 92z"/>
<path d="M4066 5904 c-27 -26 -19 -61 18 -81 29 -16 66 11 66 48 0 44 -53 65
-84 33z"/>
<path d="M1752 5699 c-63 -23 -26 -114 37 -94 24 7 35 37 27 70 -7 26 -32 36
-64 24z"/>
<path d="M2122 5680 c-6 -11 -12 -25 -12 -31 0 -17 40 -49 61 -49 40 0 65 60
37 88 -19 19 -72 15 -86 -8z"/>
<path d="M4466 5684 c-3 -9 -6 -29 -6 -45 0 -22 6 -30 24 -35 55 -13 92 28 66
75 -13 26 -74 30 -84 5z"/>
<path d="M2400 5602 c0 -5 -9 -12 -20 -15 -24 -6 -28 -60 -6 -83 34 -34 101 0
94 47 -3 22 -68 71 -68 51z"/>
<path d="M2782 5587 c-27 -28 -28 -58 -4 -80 26 -23 55 -21 80 6 28 29 27 36
-2 70 -29 33 -46 34 -74 4z"/>
<path d="M1410 5530 c0 -5 5 -10 10 -10 6 0 10 5 10 10 0 6 -4 10 -10 10 -5 0
-10 -4 -10 -10z"/>
<path d="M4666 5515 c-21 -20 -26 -33 -26 -72 0 -58 19 -90 67 -109 43 -19
100 -3 127 34 28 37 26 115 -5 148 -19 20 -32 24 -79 24 -47 0 -62 -4 -84 -25z"/>
<path d="M2614 5373 c-18 -19 -18 -70 0 -89 10 -9 37 -14 81 -14 75 0 95 12
95 57 0 49 -12 57 -90 59 -50 1 -75 -3 -86 -13z"/>
<path d="M2110 5187 c-9 -7 -22 -26 -29 -44 -15 -36 -5 -63 38 -100 32 -28 47
-29 89 -3 58 36 67 96 20 140 -25 23 -93 27 -118 7z"/>
<path d="M2433 5177 c-47 -47 -30 -111 40 -146 23 -12 31 -12 55 0 39 20 51
39 52 82 0 77 -93 118 -147 64z"/>
<path d="M5987 5143 c-10 -10 -8 -56 3 -73 7 -11 10 -2 10 33 0 48 -1 52 -13
40z"/>
<path d="M2868 5063 c-9 -2 -22 -17 -28 -33 -10 -25 -10 -34 3 -53 12 -19 13
-27 1 -48 -11 -22 -10 -30 6 -57 23 -37 57 -42 83 -14 18 20 23 72 7 72 -5 0
-10 9 -10 20 0 11 5 20 10 20 16 0 12 67 -6 84 -15 16 -32 18 -66 9z"/>
<path d="M5905 5037 c-4 -10 -5 -21 -1 -24 10 -10 18 4 13 24 -4 17 -4 17 -12
0z"/>
<path d="M5931 5034 c0 -11 3 -14 6 -6 3 7 2 16 -1 19 -3 4 -6 -2 -5 -13z"/>
<path d="M5980 5000 c0 -25 5 -52 10 -60 7 -11 10 -3 10 30 0 25 -5 52 -10 60
-7 11 -10 3 -10 -30z"/>
<path d="M3093 4935 c-19 -21 -16 -43 11 -71 28 -31 55 -28 75 8 23 40 3 78
-41 78 -18 -1 -39 -7 -45 -15z"/>
<path d="M3252 4930 c-6 -11 -12 -26 -12 -33 0 -18 42 -57 61 -57 43 1 66 65
35 96 -21 21 -69 18 -84 -6z"/>
<path d="M5940 4802 c-6 -2 -6 -10 0 -23 7 -13 7 -19 0 -19 -5 0 -10 -6 -10
-13 0 -7 -9 -19 -20 -27 -11 -8 -20 -20 -20 -27 0 -7 -4 -13 -10 -13 -5 0 -10
-23 -10 -50 0 -37 -4 -52 -16 -57 -19 -7 -34 13 -34 48 0 29 -27 59 -53 59 -9
0 -17 4 -17 9 0 5 -11 11 -25 13 -61 12 -145 -73 -145 -145 0 -16 -3 -18 -12
-9 -31 31 -76 1 -88 -58 -4 -18 -13 -26 -32 -28 -33 -4 -37 -19 -42 -165 -3
-85 -8 -113 -22 -128 -13 -14 -14 -22 -5 -32 6 -8 10 -16 8 -18 -1 -2 8 7 21
20 l23 23 35 -37 c19 -21 34 -45 34 -55 0 -19 -22 -42 -36 -38 -18 5 -54 -14
-54 -28 0 -23 20 -56 52 -87 16 -15 26 -32 23 -37 -4 -6 1 -18 10 -27 13 -13
15 -26 10 -57 -4 -23 -8 -56 -9 -74 -1 -21 -10 -38 -24 -48 -21 -14 -22 -20
-15 -101 5 -65 3 -87 -7 -93 -8 -5 -14 -33 -15 -77 -1 -37 -7 -79 -12 -93 -6
-14 -13 -54 -17 -90 -4 -36 -14 -80 -23 -97 -10 -21 -13 -45 -9 -67 4 -18 2
-45 -3 -58 -5 -14 -6 -48 -1 -79 5 -38 8 -44 9 -21 0 17 6 32 11 32 6 0 10 -3
11 -7 12 -88 0 -166 -33 -209 -4 -6 -5 -14 -1 -17 3 -4 1 -7 -5 -7 -7 0 -12 5
-12 10 0 6 -5 10 -11 10 -8 0 -8 -5 1 -15 7 -8 19 -15 26 -15 9 0 14 -11 14
-30 0 -23 -5 -30 -19 -30 -10 0 -21 7 -25 15 -3 8 -10 15 -16 15 -5 0 -10 -7
-10 -15 0 -10 -10 -15 -26 -15 -25 0 -26 2 -20 35 10 49 -1 61 -30 34 -20 -19
-24 -32 -24 -80 0 -39 5 -63 15 -73 14 -14 14 -18 0 -45 -8 -17 -15 -50 -15
-76 0 -25 -5 -45 -10 -45 -6 0 -19 -14 -30 -32 -14 -23 -16 -35 -9 -45 7 -7 9
-30 5 -55 -10 -66 -10 -88 4 -148 17 -75 15 -123 -5 -173 -33 -79 -57 -247
-36 -247 6 0 11 -9 11 -19 0 -11 5 -23 10 -26 19 -12 4 -103 -24 -145 -14 -22
-26 -43 -26 -47 0 -5 -16 -18 -36 -31 -32 -21 -35 -27 -30 -56 5 -27 1 -40
-24 -71 -21 -26 -30 -49 -30 -74 0 -20 -8 -50 -19 -66 -10 -17 -21 -51 -25
-76 -4 -27 -14 -51 -26 -59 -13 -9 -22 -31 -26 -63 -4 -27 -13 -51 -20 -54 -8
-3 -14 -16 -14 -29 0 -13 -3 -24 -8 -24 -12 0 -30 -68 -20 -78 14 -14 -21 -44
-43 -37 -24 8 -25 -10 -1 -20 16 -6 16 -7 0 -19 -12 -8 -18 -26 -18 -49 0 -70
-45 -137 -92 -137 -15 0 -28 -4 -28 -10 0 -5 -11 -10 -25 -10 -14 0 -25 5 -25
10 0 6 -17 10 -39 10 -33 0 -40 -4 -51 -29 -11 -27 -2 -62 21 -81 15 -12 29
-50 19 -50 -5 0 -10 -7 -10 -15 0 -8 -4 -15 -10 -15 -5 0 -10 -15 -10 -34 0
-19 -4 -37 -9 -40 -5 -3 -12 -22 -15 -41 -4 -19 -10 -35 -14 -35 -4 0 -13 -20
-20 -45 l-12 -45 -57 0 c-35 1 -66 6 -77 15 -11 8 -25 15 -31 15 -19 0 -53
-34 -64 -63 l-11 -27 674 0 674 0 7 30 c7 30 42 50 64 36 5 -3 16 -3 24 0 18
7 11 34 -8 34 -7 0 -15 7 -19 15 -3 9 0 15 9 15 11 0 15 11 15 40 0 33 3 40
20 40 13 0 20 7 20 20 0 16 -7 20 -30 20 -33 0 -38 13 -15 36 8 9 15 11 15 5
0 -16 19 -13 36 4 9 8 28 15 43 15 49 0 69 31 75 120 1 19 3 45 4 58 1 12 8
22 15 22 7 0 19 9 27 20 8 11 20 20 28 20 7 0 22 -9 34 -20 12 -11 28 -20 35
-20 7 0 13 -9 13 -20 0 -13 7 -20 20 -20 19 0 20 7 20 118 -1 84 -3 112 -11
100 -5 -10 -9 -26 -7 -35 2 -14 -5 -19 -29 -21 -27 -3 -33 -7 -33 -28 0 -14
-6 -24 -14 -24 -8 0 -16 -6 -19 -12 -2 -8 -8 -9 -13 -4 -5 5 -4 11 4 13 14 5
16 43 2 43 -15 0 -12 29 5 46 8 9 15 25 15 37 0 14 13 30 38 45 20 13 43 35
50 49 16 35 16 258 0 303 -9 26 -9 35 0 38 7 2 12 18 11 35 0 18 -3 26 -6 20
-7 -18 -103 -17 -103 0 0 16 31 47 47 47 10 0 27 70 19 78 -2 1 -13 4 -24 5
-24 1 -18 23 9 30 13 4 19 14 19 35 0 17 6 33 13 35 7 3 5 6 -5 6 -10 1 -18 6
-18 11 0 6 -11 10 -25 10 -26 0 -31 13 -18 46 6 16 7 16 14 -2 7 -17 8 -17 8
-1 1 9 8 17 17 17 14 0 16 8 10 53 -3 28 -6 62 -6 75 0 14 -6 22 -17 23 -14 0
-15 2 -3 6 8 3 18 11 22 17 5 7 8 4 8 -6 0 -10 4 -18 9 -18 5 0 12 -12 16 -28
5 -16 9 -22 13 -13 6 16 -18 124 -30 131 -4 4 -11 20 -14 38 -5 25 -3 32 10
32 9 0 16 -6 16 -14 0 -8 4 -18 10 -21 6 -4 6 4 -1 22 -7 19 -7 29 0 31 8 3
11 448 11 1485 l0 1482 -25 0 c-14 0 -29 -1 -35 -3z m43 -2809 c-4 -10 -13
-24 -20 -31 -11 -11 -13 -9 -13 11 0 27 7 37 26 37 9 0 11 -6 7 -17z m-3 -68
c0 -8 -4 -15 -10 -15 -5 0 -10 -8 -10 -17 0 -15 -2 -16 -10 -3 -17 26 -12 50
10 50 11 0 20 -7 20 -15z m-30 -380 c0 -28 -14 -32 -36 -11 -21 22 -17 36 11
36 20 0 25 -5 25 -25z m-60 -90 c0 -21 -5 -25 -30 -25 l-31 0 18 25 c23 32 43
32 43 0z m84 -472 c-5 -5 -12 -12 -16 -18 -4 -6 -8 -2 -8 8 0 9 7 17 17 17 9
0 12 -3 7 -7z m13 -89 c-3 -3 -12 -4 -19 -1 -8 3 -5 6 6 6 11 1 17 -2 13 -5z
m-197 -479 c0 -8 -4 -15 -10 -15 -5 0 -10 7 -10 15 0 8 5 15 10 15 6 0 10 -7
10 -15z"/>
<path d="M2501 4758 c-34 -35 -40 -75 -18 -121 27 -58 115 -70 164 -21 23 23
28 36 27 75 -1 94 -106 135 -173 67z"/>
<path d="M2936 4724 c-20 -19 -21 -68 -2 -83 24 -20 79 -9 93 18 27 56 -47
109 -91 65z"/>
<path d="M2366 4624 c-18 -18 -21 -56 -6 -85 8 -13 21 -19 46 -19 43 0 64 19
64 59 0 51 -69 81 -104 45z"/>
<path d="M2783 4630 c-18 -7 -23 -17 -23 -48 0 -47 14 -62 57 -62 32 0 43 -12
23 -25 -31 -19 11 -85 54 -85 37 0 56 22 56 64 0 29 -5 38 -30 51 -17 9 -35
13 -40 10 -5 -3 -6 9 -3 29 8 54 -41 88 -94 66z"/>
<path d="M2633 4528 c-39 -19 -47 -80 -15 -105 10 -7 29 -13 44 -13 26 0 27
-2 16 -25 -10 -22 -8 -30 9 -53 11 -15 32 -28 46 -30 24 -3 27 -8 27 -41 0
-30 5 -40 24 -51 53 -28 112 21 86 71 -16 30 -29 39 -57 39 -19 0 -22 5 -21
41 0 44 -20 68 -59 69 -19 0 -22 4 -17 29 5 23 1 35 -19 55 -29 29 -32 29 -64
14z"/>
<path d="M3262 4517 c-41 -44 -20 -107 36 -107 55 0 81 65 43 108 -24 28 -52
28 -79 -1z"/>
<path d="M2992 4425 c-44 -51 -21 -125 44 -141 63 -16 122 49 101 111 -14 41
-34 54 -83 55 -31 0 -45 -6 -62 -25z"/>
<path d="M2367 4302 c-36 -40 -9 -102 45 -102 53 0 79 74 36 104 -30 21 -61
20 -81 -2z"/>
<path d="M2132 4194 c-29 -20 -30 -70 -2 -79 11 -3 20 -11 20 -16 0 -14 33
-10 54 6 23 18 26 83 4 96 -20 13 -51 11 -76 -7z"/>
<path d="M2357 4110 c-25 -20 -26 -25 -26 -113 1 -112 16 -137 84 -137 64 0
79 23 81 123 1 85 -12 129 -41 141 -32 12 -73 6 -98 -14z"/>
<path d="M2923 4113 c-46 -42 -44 -104 4 -138 19 -14 22 -12 33 14 15 36 77
66 117 56 15 -3 43 -24 63 -45 44 -47 55 -38 55 48 0 45 -5 66 -15 72 -25 16
-69 11 -99 -11 l-29 -21 -21 21 c-26 26 -81 28 -108 4z"/>
<path d="M2703 4098 c-30 -37 -34 -58 -17 -83 21 -33 48 -39 79 -19 47 31 24
114 -32 114 -11 0 -25 -6 -30 -12z"/>
<path d="M2618 3987 c-33 -26 -23 -93 17 -103 58 -14 95 32 69 85 -17 34 -54
41 -86 18z"/>
<path d="M2772 3988 c-17 -17 -15 -74 4 -92 31 -32 84 -14 99 33 14 45 -69 93
-103 59z"/>
<path d="M3372 3960 c-7 -11 -19 -20 -27 -20 -19 0 -19 -17 -1 -36 25 -24 56
-18 84 18 11 13 11 20 0 37 -16 26 -40 27 -56 1z"/>
<path d="M2530 3798 c-29 -20 -36 -31 -38 -64 -4 -52 33 -94 84 -94 19 0 34 5
34 10 0 6 8 10 18 10 29 0 70 23 83 46 9 17 8 27 -5 47 -15 21 -42 35 -126 63
-9 3 -31 -5 -50 -18z"/>
<path d="M3425 3808 c-38 -22 -50 -41 -50 -80 0 -47 39 -88 82 -88 48 1 59 18
58 89 -1 56 -3 65 -25 77 -30 16 -39 17 -65 2z"/>
<path d="M2289 3769 c-30 -30 -24 -66 13 -89 23 -14 35 -16 45 -8 7 6 27 8 46
4 43 -8 77 15 77 53 0 41 -22 54 -97 56 -53 2 -69 -1 -84 -16z"/>
<path d="M2123 3665 c-17 -19 -16 -70 1 -84 8 -7 32 -11 53 -9 48 4 66 41 39
82 -19 29 -72 36 -93 11z"/>
<path d="M2943 3595 c-32 -14 -33 -16 -33 -74 0 -51 3 -62 22 -75 31 -22 70
-20 96 4 18 17 20 25 12 46 -7 16 -7 32 0 44 14 27 14 28 -22 50 -39 23 -34
23 -75 5z"/>
<path d="M2441 3479 c-50 -46 -47 -99 7 -138 35 -25 41 -25 74 -8 41 21 58 44
58 79 -1 74 -87 115 -139 67z"/>
<path d="M1973 3463 c-17 -11 -23 -25 -23 -54 0 -22 5 -39 10 -39 6 0 10 -7
10 -15 0 -8 -4 -15 -10 -15 -17 0 -11 -56 8 -73 10 -10 33 -17 51 -17 41 0 59
33 42 80 -7 21 -7 38 -1 50 16 30 12 58 -12 80 -26 24 -45 25 -75 3z"/>
<path d="M3658 3458 c-30 -38 -22 -75 20 -97 19 -10 30 -10 53 -1 25 11 29 18
29 51 0 62 -66 93 -102 47z"/>
<path d="M2270 3365 c-64 -68 13 -173 97 -133 83 40 58 158 -34 158 -29 0 -46
-6 -63 -25z"/>
<path d="M3238 3293 c-63 -43 -69 -113 -16 -170 24 -25 75 -39 107 -28 30 9
71 49 71 69 0 9 6 26 13 37 10 17 10 23 0 26 -7 3 -13 11 -13 19 0 16 -29 47
-59 63 -31 17 -63 12 -103 -16z"/>
<path d="M2635 3281 c-53 -16 -82 -64 -63 -106 15 -34 4 -42 -23 -16 -32 30
-89 28 -118 -3 -47 -50 -23 -125 45 -142 30 -8 84 13 84 32 0 27 61 55 110 51
24 -3 46 -10 48 -16 2 -6 7 -11 12 -11 14 0 10 163 -5 183 -15 21 -62 36 -90
28z"/>
<path d="M2205 3168 c-31 -18 -44 -40 -44 -73 0 -77 102 -112 155 -54 28 31
25 96 -5 120 -26 21 -76 24 -106 7z"/>
<path d="M3477 2986 c-10 -8 -26 -30 -36 -51 -15 -32 -16 -43 -6 -72 16 -45
55 -81 93 -85 l30 -3 -29 -34 c-24 -29 -31 -32 -43 -21 -36 29 -107 -30 -75
-63 23 -22 59 -39 59 -27 0 21 39 9 74 -25 25 -23 47 -35 66 -35 44 0 97 30
111 62 14 34 6 94 -16 118 -22 24 -19 30 16 30 49 0 89 49 89 110 0 39 -5 54
-29 79 -25 27 -36 31 -80 31 -28 0 -51 -4 -51 -9 0 -17 -28 -19 -55 -5 -34 18
-94 18 -118 0z"/>
<path d="M2380 2970 c0 -5 -5 -10 -11 -10 -20 0 -38 -34 -39 -71 0 -35 12 -53
59 -91 11 -10 21 -26 21 -37 0 -21 20 -41 59 -57 20 -9 33 -8 56 4 42 21 54
41 55 87 0 32 5 42 22 50 28 12 37 45 12 45 -9 0 -28 12 -41 26 -19 21 -26 24
-38 14 -8 -7 -15 -24 -15 -39 0 -25 -1 -24 -17 9 -10 19 -29 45 -43 57 -25 23
-80 32 -80 13z"/>
<path d="M2122 2810 c-6 -11 -12 -25 -12 -31 0 -16 40 -49 59 -49 42 1 68 59
39 88 -19 19 -72 15 -86 -8z"/>
<path d="M2938 2780 c-7 -11 -17 -20 -21 -20 -24 0 -40 -35 -40 -88 0 -48 4
-59 27 -79 19 -16 40 -23 71 -23 62 0 95 30 102 93 6 46 4 50 -38 92 -48 49
-81 57 -101 25z"/>
<path d="M3152 2762 c-51 -39 -45 -124 12 -177 20 -18 36 -40 36 -50 0 -26 40
-53 88 -61 41 -6 42 -7 23 -23 -11 -10 -27 -36 -36 -58 -9 -23 -25 -43 -36
-46 -11 -3 -28 -25 -39 -53 -23 -53 -17 -87 20 -114 18 -13 17 -15 -13 -42
-31 -29 -31 -30 -19 -85 7 -33 20 -63 33 -74 l21 -18 -46 -12 c-26 -6 -53 -21
-61 -32 -16 -23 -20 -102 -6 -111 5 -3 7 -23 4 -45 -7 -48 8 -76 50 -96 30
-14 36 -14 65 1 34 16 62 59 62 94 0 11 -4 20 -9 20 -5 0 -3 13 5 30 16 30 10
100 -7 100 -5 0 -9 9 -9 20 0 14 9 21 35 26 59 11 79 37 79 101 0 50 -3 57
-32 82 -26 21 -30 29 -20 39 16 16 34 15 64 -4 60 -40 144 14 144 92 0 39 -27
84 -50 84 -5 0 -19 20 -30 45 -21 46 -68 85 -103 85 -17 0 -17 2 2 29 12 17
21 45 21 66 0 39 -32 95 -54 95 -7 0 -18 16 -26 35 -20 51 -53 75 -103 75 -24
0 -51 -8 -65 -18z"/>
<path d="M2192 2645 c-57 -65 -19 -156 66 -155 78 1 107 108 43 157 -22 17
-93 15 -109 -2z"/>
<path d="M2512 2637 c-33 -35 -30 -99 4 -126 29 -23 83 -28 102 -9 7 7 12 40
12 79 0 73 -5 79 -64 79 -21 0 -40 -8 -54 -23z"/>
<path d="M2385 2553 c-55 -15 -75 -101 -32 -141 29 -28 86 -29 118 -3 19 15
24 28 23 64 0 25 -7 52 -16 60 -17 17 -64 27 -93 20z"/>
<path d="M3101 2504 c-21 -23 -22 -28 -10 -50 15 -29 53 -41 74 -24 21 17 19
70 -2 86 -25 19 -34 17 -62 -12z"/>
<path d="M2135 2447 c-38 -23 -46 -37 -47 -79 0 -35 5 -46 28 -65 16 -13 41
-23 55 -23 35 0 76 34 84 69 7 34 -18 91 -40 91 -8 0 -15 5 -15 10 0 14 -40
12 -65 -3z"/>
<path d="M2523 2434 c-44 -34 -47 -92 -7 -129 30 -28 78 -33 100 -11 7 8 19
16 25 18 7 2 12 25 13 50 1 40 -3 50 -29 72 -38 33 -61 33 -102 0z"/>
<path d="M2676 2326 c-45 -41 -32 -112 26 -142 26 -14 34 -14 57 -2 37 18 46
29 58 64 28 80 -78 140 -141 80z"/>
<path d="M2292 2100 c-24 -23 -29 -55 -9 -73 37 -36 45 -39 69 -26 43 23 51
61 19 97 -23 27 -51 28 -79 2z"/>
<path d="M2458 2107 c-31 -24 -25 -82 12 -104 41 -26 107 38 78 76 -36 45 -58
52 -90 28z"/>
<path d="M2617 2102 c-10 -10 -17 -30 -17 -45 0 -26 34 -67 54 -67 17 1 41 22
55 48 10 19 9 27 -9 52 -25 34 -59 39 -83 12z"/>
<path d="M2940 2088 c-23 -25 -23 -26 -7 -56 l13 -22 39 35 c39 35 39 36 21
50 -27 20 -42 19 -66 -7z"/>
<path d="M2123 1995 c-7 -8 -13 -27 -13 -43 0 -58 98 -75 115 -20 7 21 -3 60
-19 70 -19 13 -70 8 -83 -7z"/>
<path d="M1989 1903 c-9 -2 -22 -15 -29 -28 -11 -21 -11 -29 0 -50 12 -22 20
-25 49 -23 44 4 66 37 49 74 -6 13 -15 24 -19 24 -4 0 -13 2 -21 4 -7 2 -20 2
-29 -1z"/>
<path d="M2430 1805 c-16 -17 -24 -37 -23 -59 1 -26 -5 -37 -22 -46 -46 -24
-42 -88 6 -109 28 -12 32 -11 55 10 13 12 24 30 24 40 0 11 11 20 32 24 70 16
99 85 57 139 -29 37 -95 37 -129 1z"/>
<path d="M2131 1791 c-26 -23 -27 -62 -3 -84 23 -21 138 -23 165 -3 25 19 22
72 -5 90 -34 21 -132 19 -157 -3z"/>
<path d="M2862 1788 c-7 -7 -12 -18 -12 -26 0 -8 -11 -27 -25 -44 -35 -42 -35
-107 0 -143 32 -31 110 -36 141 -7 49 44 45 116 -7 161 -16 13 -26 28 -23 33
17 27 -49 51 -74 26z"/>
<path d="M864 1698 c-54 -25 -46 -98 11 -98 39 0 55 16 55 55 0 38 -32 58 -66
43z"/>
<path d="M3349 1697 c-40 -31 -40 -70 1 -104 22 -18 37 -16 65 9 31 27 32 61
3 88 -25 23 -46 25 -69 7z"/>
<path d="M1726 1684 c-36 -36 2 -102 52 -89 31 8 42 21 42 52 0 28 -25 53 -55
53 -13 0 -31 -7 -39 -16z"/>
<path d="M2613 1620 c-12 -5 -29 -24 -38 -44 -13 -28 -14 -39 -4 -58 23 -44
41 -58 79 -58 73 0 116 81 72 138 -20 25 -75 37 -109 22z"/>
<path d="M2756 1499 c-41 -48 -30 -106 25 -134 27 -14 36 -15 58 -4 48 24 61
41 61 79 0 82 -93 120 -144 59z"/>
<path d="M865 1492 c-23 -5 -44 -30 -45 -53 -1 -44 82 -66 113 -31 39 43 -5
97 -68 84z"/>
<path d="M1706 1493 c-51 -4 -75 -22 -76 -55 0 -28 41 -47 109 -50 66 -3 91
12 91 54 0 24 -35 58 -57 56 -10 -1 -40 -3 -67 -5z"/>
<path d="M2314 1492 c-30 -4 -52 -47 -36 -72 15 -24 16 -50 2 -50 -5 0 -10
-12 -10 -26 0 -32 34 -64 66 -64 31 0 58 42 50 75 -5 21 -3 25 17 25 39 0 67
27 67 65 0 26 -5 36 -22 42 -23 8 -95 11 -134 5z"/>
<path d="M1560 1370 c-23 -32 -20 -45 20 -77 52 -42 111 46 62 90 -28 26 -58
21 -82 -13z"/>
<path d="M1972 1377 c-12 -13 -22 -31 -22 -41 0 -20 38 -55 60 -55 55 0 74 85
25 107 -35 16 -38 15 -63 -11z"/>
<path d="M2624 1393 c-25 -18 -34 -51 -22 -78 21 -47 85 -46 107 2 10 23 9 30
-7 52 -19 26 -58 38 -78 24z"/>
<path d="M2865 1318 c-37 -21 -55 -47 -55 -81 0 -48 40 -87 89 -87 41 1 60 13
80 52 17 34 8 71 -27 103 -29 27 -55 31 -87 13z"/>
<path d="M921 1276 c-21 -25 -9 -76 21 -93 24 -15 27 -15 43 0 9 9 21 17 26
17 16 0 10 77 -7 84 -28 11 -71 6 -83 -8z"/>
<path d="M1326 1274 c-32 -31 -11 -84 32 -84 37 0 52 17 52 56 0 44 -51 62
-84 28z"/>
<path d="M2127 1272 c-10 -10 -17 -26 -17 -36 0 -46 79 -68 107 -30 15 21 9
64 -10 76 -22 14 -64 8 -80 -10z"/>
<path d="M1903 1178 c-44 -21 -22 -97 28 -98 22 0 49 32 49 58 0 11 -10 28
-22 36 -26 18 -25 18 -55 4z"/>
<path d="M2452 1178 c-17 -17 -15 -73 2 -87 24 -20 69 -9 85 20 13 24 13 29
-2 53 -19 28 -63 36 -85 14z"/>
<path d="M1422 1087 c-29 -13 -39 -53 -21 -86 17 -31 43 -38 75 -20 19 10 24
21 24 50 0 32 -5 41 -27 52 -21 11 -34 12 -51 4z"/>
<path d="M2628 1084 c-36 -19 -41 -62 -11 -96 18 -20 58 -24 68 -7 4 5 19 7
34 4 19 -4 34 0 49 13 42 37 17 82 -46 82 -22 0 -44 5 -47 10 -8 13 -14 12
-47 -6z"/>
<path d="M2058 1079 c-24 -13 -25 -84 -2 -93 40 -15 94 12 94 49 0 21 -37 55
-59 55 -9 0 -24 -5 -33 -11z"/>
<path d="M1572 1068 c-19 -19 -15 -66 7 -78 11 -5 24 -10 29 -10 16 0 52 37
52 54 0 39 -60 62 -88 34z"/>
<path d="M1995 978 c-27 -12 -52 -51 -36 -56 14 -5 15 -62 1 -62 -14 0 -12
-42 3 -62 24 -31 91 -23 102 12 3 10 -1 33 -10 50 -13 24 -14 35 -5 46 28 33
-16 90 -55 72z"/>
<path d="M2313 977 c-28 -12 -36 -37 -24 -71 12 -30 52 -36 77 -12 37 38 -5
105 -53 83z"/>
<path d="M2700 910 c0 -5 -5 -10 -11 -10 -34 0 -52 -88 -26 -120 17 -21 53
-40 74 -40 32 0 73 43 79 81 5 31 2 41 -23 68 -21 22 -39 31 -62 31 -17 0 -31
-4 -31 -10z"/>
<path d="M2960 886 c-32 -14 -40 -25 -40 -60 0 -51 69 -76 103 -38 42 46 -8
123 -63 98z"/>
<path d="M2543 880 c-26 -10 -36 -39 -27 -74 5 -21 3 -25 -9 -20 -26 9 -67
-25 -67 -56 0 -50 61 -80 91 -44 7 9 12 31 12 50 -1 27 3 34 18 34 10 0 30 5
44 12 19 9 25 19 25 43 0 47 -42 73 -87 55z"/>
<path d="M0 830 c0 -51 12 -64 38 -38 26 26 8 88 -25 88 -9 0 -13 -16 -13 -50z"/>
<path d="M1406 864 c-3 -9 -6 -29 -6 -45 0 -48 65 -53 94 -6 18 28 -11 67 -50
67 -20 0 -34 -6 -38 -16z"/>
<path d="M1644 855 c-14 -21 -14 -26 1 -49 15 -22 23 -24 81 -24 67 0 94 14
94 46 -1 38 -24 51 -93 51 -60 0 -69 -3 -83 -24z"/>
<path d="M2212 868 c-18 -18 -15 -75 4 -82 26 -10 69 -7 82 6 16 16 15 56 -2
74 -18 17 -68 18 -84 2z"/>
<path d="M1006 764 c-40 -40 9 -105 61 -81 34 15 33 74 -3 87 -34 13 -40 13
-58 -6z"/>
<path d="M1244 756 c-10 -25 0 -58 22 -73 18 -12 24 -11 47 8 46 36 30 79 -30
79 -20 0 -36 -6 -39 -14z"/>
<path d="M5951 694 c0 -11 3 -14 6 -6 3 7 2 16 -1 19 -3 4 -6 -2 -5 -13z"/>
<path d="M1578 666 c-21 -15 -24 -56 -6 -74 16 -16 56 -15 74 2 19 20 18 50
-4 69 -22 20 -41 21 -64 3z"/>
<path d="M2052 671 c-16 -10 -19 -68 -4 -83 17 -17 68 -14 86 5 46 45 -26 114
-82 78z"/>
<path d="M2290 658 c-11 -12 -18 -28 -15 -35 3 -7 8 -20 11 -28 5 -12 -2 -15
-35 -15 -36 0 -43 -4 -52 -27 -16 -40 7 -77 49 -81 46 -5 66 19 59 68 -5 37
-4 39 25 38 28 -1 29 -3 24 -32 -8 -43 16 -76 55 -76 37 0 59 20 59 55 0 35
-22 55 -59 55 -28 0 -30 2 -29 41 0 25 -5 45 -13 50 -24 15 -58 10 -79 -13z"/>
<path d="M1085 556 c-21 -31 -12 -63 21 -78 22 -10 28 -8 52 15 26 26 26 28
10 55 -23 37 -62 41 -83 8z"/>
<path d="M1328 558 c-22 -27 -23 -42 -3 -62 14 -14 14 -18 -1 -41 -30 -47 10
-94 64 -74 17 6 22 16 22 42 0 18 -6 39 -12 46 -10 11 -10 14 0 18 6 3 12 18
12 35 0 55 -50 77 -82 36z"/>
<path d="M1733 565 c-29 -32 -6 -94 36 -95 18 0 51 38 51 60 0 40 -62 64 -87
35z"/>
<path d="M2603 553 c-6 -18 -6 -38 0 -56 8 -25 13 -28 49 -25 30 2 43 9 55 29
14 24 14 28 -2 52 -14 21 -25 27 -55 27 -33 0 -39 -4 -47 -27z"/>
<path d="M837 449 c-8 -29 8 -65 30 -71 34 -9 63 9 63 40 0 37 -17 52 -56 52
-24 0 -33 -5 -37 -21z"/>
<path d="M1257 366 c-13 -10 -17 -24 -15 -48 3 -30 6 -33 39 -36 29 -2 37 1
49 23 12 23 11 27 -10 50 -27 28 -37 30 -63 11z"/>
<path d="M1650 355 c-21 -23 -22 -27 -10 -50 12 -22 20 -25 49 -23 33 3 36 6
39 36 2 24 -2 38 -15 48 -26 19 -36 17 -63 -11z"/>
<path d="M1898 366 c-23 -17 -24 -72 -2 -80 67 -26 110 21 65 72 -21 25 -38
27 -63 8z"/>
<path d="M2617 362 c-24 -26 -22 -69 4 -82 52 -29 107 26 75 75 -20 30 -56 33
-79 7z"/>
<path d="M2933 365 c-40 -45 10 -121 63 -97 62 29 48 112 -19 112 -17 -1 -38
-7 -44 -15z"/>
<path d="M358 245 c-23 -51 45 -101 78 -57 30 39 10 82 -38 82 -20 0 -32 -7
-40 -25z"/>
<path d="M602 258 c-27 -27 0 -88 40 -88 33 0 56 46 42 84 -7 19 -64 22 -82 4z"/>
<path d="M762 258 c-18 -18 -14 -53 9 -73 17 -17 24 -17 52 -7 21 8 33 9 35 2
5 -15 41 -12 58 4 17 18 18 58 2 74 -16 16 -140 16 -156 0z"/>
<path d="M1407 263 c-12 -11 -8 -68 5 -81 17 -17 44 -15 68 5 22 19 26 53 8
71 -13 13 -70 17 -81 5z"/>
<path d="M1733 263 c-7 -2 -13 -19 -13 -37 0 -42 39 -68 72 -47 15 9 23 10 31
2 16 -16 42 -13 60 7 20 22 22 53 5 70 -12 12 -130 16 -155 5z"/>
<path d="M1967 246 c-15 -22 -15 -26 4 -50 11 -14 28 -26 38 -26 23 0 51 31
51 56 0 48 -66 61 -93 20z"/>
<path d="M2126 245 c-16 -25 -16 -27 13 -55 40 -40 40 -94 -1 -118 -18 -10
-28 -25 -28 -39 0 -36 -43 -31 -57 7 -11 30 -42 40 -69 22 -16 -10 -34 -48
-27 -56 3 -3 66 -6 139 -6 124 0 133 1 139 20 8 26 35 26 35 0 0 -18 7 -20 60
-20 46 0 60 3 60 15 0 25 -23 65 -37 65 -8 0 -13 12 -13 34 0 47 -33 85 -81
92 -27 5 -39 12 -39 23 0 46 -67 57 -94 16z"/>
<path d="M1183 169 c-27 -10 -38 -42 -23 -69 9 -17 19 -20 48 -18 34 3 37 5
40 39 2 29 -1 37 -20 46 -13 6 -32 7 -45 2z"/>
<path d="M2379 159 c-37 -37 -18 -79 36 -79 23 0 35 7 44 24 26 49 -40 95 -80
55z"/>
<path d="M2616 164 c-22 -22 -20 -66 4 -87 39 -33 84 -7 84 49 0 51 -52 74
-88 38z"/>
<path d="M122 158 c-7 -7 -12 -21 -12 -33 0 -28 19 -45 50 -45 31 0 50 17 50
43 0 40 -60 63 -88 35z"/>
<path d="M0 40 c0 -36 3 -40 25 -40 21 0 25 5 25 28 0 30 -16 52 -37 52 -8 0
-13 -14 -13 -40z"/>
<path d="M353 65 c-7 -8 -13 -26 -13 -40 l0 -25 95 0 95 0 0 28 c0 15 -5 33
-12 40 -18 18 -150 15 -165 -3z"/>
<path d="M602 58 c-7 -7 -12 -22 -12 -35 0 -21 4 -23 50 -23 53 0 61 10 40 51
-12 22 -59 26 -78 7z"/>
<path d="M845 54 c-29 -29 -15 -49 38 -52 46 -3 47 -3 47 26 0 43 -52 58 -85
26z"/>
<path d="M1487 49 c-28 -32 -15 -49 38 -49 46 0 46 0 43 33 -3 27 -7 32 -33
35 -21 2 -36 -4 -48 -19z"/>
<path d="M2530 51 c-21 -41 -13 -51 40 -51 58 0 72 16 43 49 -22 27 -69 28
-83 2z"/>
</g>
</svg>
